HIERARCHY
ROOT Hips
{
	OFFSET 0.000000 0.000000 0.000000
	CHANNELS 6 Xposition Yposition Zposition Zrotation Yrotation Xrotation 
	JOINT LHipJoint
	{
		OFFSET 0.000000 0.000000 0.000000
		CHANNELS 3 Zrotation Yrotation Xrotation
		JOINT LeftUpLeg
		{
			OFFSET 1.363060 -1.794630 0.839290
			CHANNELS 3 Zrotation Yrotation Xrotation
			JOINT LeftLeg
			{
				OFFSET 2.448110 -6.726130 0.000000
				CHANNELS 3 Zrotation Yrotation Xrotation
				JOINT LeftFoot
				{
					OFFSET 2.562200 -7.039590 0.000000
					CHANNELS 3 Zrotation Yrotation Xrotation
					JOINT LeftToeBase
					{
						OFFSET 0.157640 -0.433110 2.322550
						CHANNELS 3 Zrotation Yrotation Xrotation
						End Site
						{
							OFFSET 0.000000 0.000000 0.000000
						}
					}
				}
			}
		}
	}
	JOINT RHipJoint
	{
		OFFSET 0.000000 0.000000 0.000000
		CHANNELS 3 Zrotation Yrotation Xrotation
		JOINT RightUpLeg
		{
			OFFSET -1.305520 -1.794630 0.839290
			CHANNELS 3 Zrotation Yrotation Xrotation
			JOINT RightLeg
			{
				OFFSET -2.542530 -6.985550 0.000000
				CHANNELS 3 Zrotation Yrotation Xrotation
				JOINT RightFoot
				{
					OFFSET -2.568260 -7.056230 0.000000
					CHANNELS 3 Zrotation Yrotation Xrotation
					JOINT RightToeBase
					{
						OFFSET -0.164730 -0.452590 2.363150
						CHANNELS 3 Zrotation Yrotation Xrotation
						End Site
						{
							OFFSET 0.000000 0.000000 0.000000
						}
					}
				}
			}
		}
	}
	JOINT LowerBack
	{
		OFFSET 0.000000 0.000000 0.000000
		CHANNELS 3 Zrotation Yrotation Xrotation
		JOINT Spine
		{
			OFFSET 0.028270 2.035590 -0.193380
			CHANNELS 3 Zrotation Yrotation Xrotation
			JOINT Spine1
			{
				OFFSET 0.056720 2.048850 -0.042750
				CHANNELS 3 Zrotation Yrotation Xrotation
				JOINT Neck
				{
					OFFSET 0.000000 0.000000 0.000000
					CHANNELS 3 Zrotation Yrotation Xrotation
					JOINT Neck1
					{
						OFFSET -0.054170 1.746240 0.172020
						CHANNELS 3 Zrotation Yrotation Xrotation
						JOINT Head
						{
							OFFSET 0.104070 1.761360 -0.123970
							CHANNELS 3 Zrotation Yrotation Xrotation
							End Site
							{
								OFFSET 0.000000 0.000000 0.000000
							}
						}
					}
				}
				JOINT LeftShoulder
				{
					OFFSET 0.000000 0.000000 0.000000
					CHANNELS 3 Zrotation Yrotation Xrotation
					JOINT LeftArm
					{
						OFFSET 3.362410 1.200890 -0.311210
						CHANNELS 3 Zrotation Yrotation Xrotation
						JOINT LeftForeArm
						{
							OFFSET 4.983000 -0.000000 -0.000000
							CHANNELS 3 Zrotation Yrotation Xrotation
							JOINT LeftHand
							{
								OFFSET 3.483560 -0.000000 -0.000000
								CHANNELS 3 Zrotation Yrotation Xrotation
								JOINT LeftFingerBase
								{
									OFFSET 0.000000 0.000000 0.000000
									CHANNELS 3 Zrotation Yrotation Xrotation
									JOINT LeftHandIndex1
									{
										OFFSET 0.715260 -0.000000 -0.000000
										CHANNELS 3 Zrotation Yrotation Xrotation
										End Site
										{
											OFFSET 0.000000 0.000000 0.000000
										}
									}
								}
								JOINT LThumb
								{
									OFFSET 0.000000 0.000000 0.000000
									CHANNELS 3 Zrotation Yrotation Xrotation
									End Site
									{
										OFFSET 0.000000 0.000000 0.000000
									}
								}
							}
						}
					}
				}
				JOINT RightShoulder
				{
					OFFSET 0.000000 0.000000 0.000000
					CHANNELS 3 Zrotation Yrotation Xrotation
					JOINT RightArm
					{
						OFFSET -3.136600 1.374050 -0.404650
						CHANNELS 3 Zrotation Yrotation Xrotation
						JOINT RightForeArm
						{
							OFFSET -5.241900 -0.000000 -0.000000
							CHANNELS 3 Zrotation Yrotation Xrotation
							JOINT RightHand
							{
								OFFSET -3.444170 -0.000000 -0.000000
								CHANNELS 3 Zrotation Yrotation Xrotation
								JOINT RightFingerBase
								{
									OFFSET 0.000000 0.000000 0.000000
									CHANNELS 3 Zrotation Yrotation Xrotation
									JOINT RightHandIndex1
									{
										OFFSET -0.622530 -0.000000 -0.000000
										CHANNELS 3 Zrotation Yrotation Xrotation
										End Site
										{
											OFFSET 0.000000 0.000000 0.000000
										}
									}
								}
								JOINT RThumb
								{
									OFFSET 0.000000 0.000000 0.000000
									CHANNELS 3 Zrotation Yrotation Xrotation
									End Site
									{
										OFFSET 0.000000 0.000000 0.000000
									}
								}
							}
						}
					}
				}
			}
		}
	}
}
MOTION
Frames: 11
Frame Time: 0.008333
4.251769 17.365201 1.012586 22.514822 -86.883082 -15.312725 -10.568569 2.669939 2.484519 -6.754894 7.219863 -9.233634 -2.008479 -1.126112 -2.085133 1.039633 8.902674 2.614581 1.788800 -0.000001 -35.251800 10.366819 -1.930213 1.301966 0.644463 -7.744191 -7.793579 1.659977 0.653621 2.929877 -0.966235 -6.459927 3.027380 -1.819200 0.000000 -63.258200 -3.302536 -0.465324 -5.014591 -1.389801 -0.281526 -4.722421 -6.084769 -0.197390 -5.633300 7.026921 -0.696057 5.243876 -2.815522 -0.368312 3.546394 0.000000 0.000000 0.000000 12.036143 3.553113 -4.909297 -79.852027 -49.147042 11.592819 177.511838 -61.083446 179.792003 10.370305 -7.140743 -0.753922 0.016654 1.165040 -0.000000 0.000000 0.000000 0.000000 0.000000 0.000000 0.000000 1.132984 0.528990 -6.256774 86.090269 48.258906 12.299493 -175.674559 61.818115 179.630714 -21.164649 17.524848 -3.560806 0.138741 -1.206302 -0.000000 0.000000 0.000000 0.000000 0.000000 0.000000 0.000000 
4.230776 17.367016 0.988690 19.065389 -86.132067 -11.649933 -10.599580 2.663260 2.616070 -6.692492 6.891075 -9.449445 -2.025627 -1.150468 -2.329043 0.982252 8.578578 2.942393 1.787100 0.000000 -35.737000 10.323777 -1.966828 1.324848 0.788649 -7.928291 -7.896648 1.655915 0.674208 2.972391 -1.041538 -6.846231 2.781824 -1.876200 -0.000000 -62.600900 -3.505162 -0.518461 -5.162876 -1.427724 -0.318695 -4.708110 -6.118772 -0.234786 -5.459035 7.004943 -0.987652 5.046711 -2.810787 -0.365465 3.492084 0.000000 0.000000 0.000000 11.741510 3.832885 -4.831023 -79.536815 -48.839520 11.537214 177.634966 -61.103554 179.795356 10.262663 -7.116453 -0.744076 0.010422 1.163011 -0.000000 0.000000 0.000000 0.000000 0.000000 0.000000 0.000000 0.928162 0.233354 -6.278738 86.102741 48.134483 12.180823 -175.680892 61.609884 179.631038 -21.197741 17.517278 -3.566110 0.143913 -1.208518 -0.000000 0.000000 0.000000 0.000000 0.000000 0.000000 0.000000 
4.208806 17.369053 0.963942 16.571378 -85.402485 -8.917636 -10.616739 2.659589 2.744044 -6.626349 6.613529 -9.687617 -2.047447 -1.178658 -2.607934 0.922571 8.240360 3.287690 1.782600 0.000000 -36.246799 10.293557 -2.002529 1.366852 0.951498 -8.046122 -8.048892 1.649793 0.694256 3.041109 -1.120797 -7.247444 2.535826 -1.934600 -0.000000 -61.897700 -3.688525 -0.565749 -5.327857 -1.461728 -0.352396 -4.695296 -6.152601 -0.267777 -5.277157 6.972769 -1.275967 4.835670 -2.805852 -0.362404 3.433901 0.000000 0.000000 0.000000 11.420367 4.126769 -4.734305 -79.155325 -48.434515 11.417226 177.770385 -61.098227 179.799025 10.148684 -7.085790 -0.733221 0.003119 1.160667 -0.000000 0.000000 0.000000 0.000000 0.000000 0.000000 0.000000 0.702820 -0.053889 -6.303514 86.122507 47.997695 12.060160 -175.688061 61.392281 179.631294 -21.239099 17.513467 -3.573707 0.149590 -1.211016 -0.000000 0.000000 0.000000 0.000000 0.000000 0.000000 0.000000 
4.186554 17.371222 0.938291 14.738246 -84.709559 -6.832065 -10.625455 2.658075 2.862899 -6.559674 6.391572 -9.927841 -2.072835 -1.209503 -2.925059 0.862435 7.899696 3.645928 1.775900 0.000000 -36.773800 10.271725 -2.034715 1.420864 1.123756 -8.102222 -8.243767 1.641403 0.711568 3.150214 -1.201616 -7.648268 2.289800 -1.990900 -0.000000 -61.175401 -3.859907 -0.607701 -5.494686 -1.493078 -0.382095 -4.682512 -6.184702 -0.295990 -5.093387 6.928740 -1.553488 4.612514 -2.800463 -0.359144 3.372189 0.000000 0.000000 0.000000 11.074547 4.424776 -4.615753 -78.691606 -47.922881 11.214351 177.916215 -61.065841 179.802909 10.034361 -7.047755 -0.721859 -0.005353 1.157907 -0.000000 0.000000 0.000000 0.000000 0.000000 0.000000 0.000000 0.459225 -0.323528 -6.330151 86.149195 47.855081 11.939043 -175.696091 61.170341 179.631440 -21.290750 17.512861 -3.583797 0.155742 -1.213753 -0.000000 0.000000 0.000000 0.000000 0.000000 0.000000 0.000000 
4.163917 17.373567 0.911786 13.357356 -84.066363 -5.174967 -10.629822 2.657517 2.972283 -6.496547 6.237297 -10.193154 -2.102611 -1.242883 -3.257540 0.801944 7.552140 4.001504 1.763800 0.000000 -37.310899 10.253963 -2.064382 1.492017 1.306064 -8.082920 -8.501659 1.630717 0.725937 3.311683 -1.284633 -8.050800 2.042774 -2.045700 -0.000000 -60.454101 -4.022968 -0.644612 -5.669673 -1.522082 -0.407807 -4.671998 -6.213313 -0.319803 -4.911931 6.871873 -1.815663 4.378203 -2.794304 -0.355693 3.307296 0.000000 0.000000 0.000000 10.712373 4.713384 -4.473981 -78.141175 -47.283308 10.911507 178.069460 -61.003371 179.806802 9.932503 -7.000870 -0.710693 -0.015273 1.154611 -0.000000 0.000000 0.000000 0.000000 0.000000 0.000000 0.000000 0.196287 -0.570709 -6.357534 86.185172 47.705505 11.821962 -175.704646 60.946502 179.631450 -21.355062 17.513892 -3.596479 0.162399 -1.216697 -0.000000 0.000000 0.000000 0.000000 0.000000 0.000000 0.000000 
4.141464 17.376020 0.884395 12.319233 -83.488849 -3.842397 -10.632183 2.656379 3.068033 -6.439040 6.154679 -10.478511 -2.135868 -1.277782 -3.592967 0.742767 7.206731 4.342721 1.746100 0.000000 -37.847600 10.238355 -2.090310 1.576629 1.492695 -7.990722 -8.822084 1.618087 0.735826 3.533105 -1.367622 -8.441533 1.796789 -2.096399 0.000000 -59.762401 -4.181299 -0.676524 -5.843885 -1.549243 -0.429007 -4.663505 -6.237233 -0.338895 -4.738789 6.801461 -2.057733 4.134351 -2.787138 -0.352061 3.239610 0.000000 0.000000 0.000000 10.336086 4.980948 -4.307399 -77.497820 -46.507799 10.496950 178.227555 -60.914967 179.810540 9.853063 -6.944381 -0.700518 -0.026775 1.150634 -0.000000 0.000000 0.000000 0.000000 0.000000 0.000000 0.000000 -0.083545 -0.788639 -6.384218 86.230968 47.554255 11.712597 -175.713799 60.725565 179.631296 -21.432210 17.515888 -3.611658 0.169485 -1.219818 -0.000000 0.000000 0.000000 0.000000 0.000000 0.000000 0.000000 
4.119749 17.378484 0.856118 11.558909 -82.994918 -2.776932 -10.634293 2.653325 3.145748 -6.387900 6.145668 -10.774080 -2.171257 -1.312976 -3.919369 0.686864 6.875242 4.657915 1.723999 -0.000000 -38.372300 10.223757 -2.111226 1.668866 1.677730 -7.836439 -9.199468 1.604693 0.739757 3.817657 -1.446620 -8.798796 1.555361 -2.138900 -0.000000 -59.130100 -4.336974 -0.703115 -6.005895 -1.574976 -0.444950 -4.656238 -6.256074 -0.352682 -4.579447 6.717204 -2.274773 3.882605 -2.778728 -0.348253 3.169493 0.000000 0.000000 0.000000 9.941324 5.220989 -4.114483 -76.755936 -45.600455 9.967480 178.389570 -60.811722 179.814060 9.799473 -6.879689 -0.691438 -0.039820 1.145878 -0.000000 0.000000 0.000000 0.000000 0.000000 0.000000 0.000000 -0.376239 -0.969310 -6.408939 86.286197 47.409614 11.614118 -175.724041 60.513533 179.630974 -21.520236 17.519065 -3.628934 0.176858 -1.223089 -0.000000 0.000000 0.000000 0.000000 0.000000 0.000000 0.000000 
4.098603 17.381014 0.826942 11.021810 -82.603728 -1.910576 -10.637307 2.647467 3.208350 -6.347851 6.214911 -11.113872 -2.209260 -1.348721 -4.206206 0.635354 6.561393 4.927732 1.696700 0.000000 -38.870300 10.207983 -2.129041 1.777970 1.862725 -7.603155 -9.658068 1.591111 0.739105 4.163299 -1.521718 -9.123495 1.319835 -2.174500 0.000000 -58.573000 -4.492986 -0.722857 -6.170933 -1.599608 -0.454177 -4.654109 -6.268520 -0.360250 -4.437631 6.620299 -2.467889 3.623101 -2.769167 -0.344285 3.097166 0.000000 0.000000 0.000000 9.537918 5.421543 -3.897776 -75.929629 -44.540122 9.321816 178.550885 -60.699567 179.817126 9.788878 -6.797786 -0.684050 -0.054661 1.139851 -0.000000 0.000000 0.000000 0.000000 0.000000 0.000000 0.000000 -0.679745 -1.111722 -6.430051 86.354831 47.270704 11.533691 -175.736120 60.314653 179.630516 -21.617092 17.521453 -3.647704 0.184477 -1.226477 -0.000000 0.000000 0.000000 0.000000 0.000000 0.000000 0.000000 
4.078861 17.383437 0.796882 10.698213 -82.337497 -1.252651 -10.642508 2.638077 3.249026 -6.316372 6.359013 -11.462826 -2.246974 -1.382980 -4.453222 0.591245 6.287918 5.147003 1.668900 -0.000000 -39.327800 10.191106 -2.141548 1.891042 2.037752 -7.317808 -10.170255 1.579584 0.732201 4.560729 -1.585382 -9.378124 1.098722 -2.196600 -0.000001 -58.119600 -4.650378 -0.735023 -6.316708 -1.623827 -0.455501 -4.653999 -6.275862 -0.360401 -4.317489 6.511511 -2.632762 3.357591 -2.758661 -0.340174 3.022876 0.000000 0.000000 0.000000 9.109949 5.588637 -3.656418 -75.016503 -43.355256 8.574037 178.713993 -60.598925 179.819964 9.804424 -6.710063 -0.677853 -0.070653 1.132755 -0.000000 0.000000 0.000000 0.000000 0.000000 0.000000 0.000000 -0.983856 -1.206628 -6.447036 86.435817 47.154853 11.475775 -175.751851 60.139342 179.629962 -21.716663 17.525754 -3.667377 0.192057 -1.229958 -0.000000 0.000000 0.000000 0.000000 0.000000 0.000000 0.000000 
4.060986 17.385736 0.766043 10.575426 -82.218545 -0.798254 -10.651144 2.624717 3.265590 -6.292286 6.577872 -11.812991 -2.282673 -1.414673 -4.651101 0.556675 6.070230 5.307227 1.644000 0.000000 -39.731900 10.172153 -2.148713 2.004849 2.199467 -6.989222 -10.725683 1.572174 0.719467 4.995204 -1.632644 -9.540355 0.898603 -2.202300 0.000000 -57.784100 -4.809117 -0.738087 -6.438319 -1.647931 -0.447407 -4.655630 -6.278747 -0.351785 -4.221076 6.392504 -2.769723 3.086305 -2.747673 -0.335940 2.946623 0.000000 0.000000 0.000000 8.649924 5.727374 -3.392208 -74.026390 -42.057700 7.739833 178.878654 -60.523859 179.822628 9.843449 -6.617176 -0.672749 -0.087558 1.124435 -0.000000 0.000000 0.000000 0.000000 0.000000 0.000000 0.000000 -1.279916 -1.250498 -6.459734 86.531581 47.073524 11.448164 -175.773200 59.997575 179.629382 -21.813264 17.532616 -3.687053 0.199392 -1.233469 -0.000000 0.000000 0.000000 0.000000 0.000000 0.000000 0.000000 
4.044204 17.387898 0.734491 10.672777 -82.271221 -0.548060 -10.663346 2.608852 3.263491 -6.281206 6.873776 -12.192363 -2.316894 -1.444734 -4.783448 0.533222 5.919793 5.398930 1.624900 -0.000001 -40.065000 10.149941 -2.153210 2.131544 2.347760 -6.596700 -11.343557 1.569640 0.704073 5.450360 -1.662807 -9.609252 0.721458 -2.193400 0.000000 -57.564100 -4.973734 -0.729668 -6.557833 -1.672566 -0.427673 -4.663451 -6.275510 -0.332765 -4.148318 6.267031 -2.883977 2.808362 -2.736933 -0.331621 2.868355 0.000000 0.000000 0.000000 8.172755 5.836933 -3.111319 -72.993160 -40.623071 6.830180 179.040530 -60.473399 179.825105 9.907674 -6.514384 -0.668233 -0.105063 1.114522 -0.000000 0.000000 0.000000 0.000000 0.000000 0.000000 0.000000 -1.561854 -1.246745 -6.467988 86.650351 47.029464 11.463862 -175.802300 59.893766 179.628865 -21.903005 17.539390 -3.705529 0.206500 -1.236952 -0.000000 0.000000 0.000000 0.000000 0.000000 0.000000 0.000000 
